<?xml version="1.0" encoding="UTF-8"?>
<svg width="197px" height="1400px" viewBox="0 0 197 1400" version="1.1" xmlns="http://www.w3.org/2000/svg" xmlns:xlink="http://www.w3.org/1999/xlink">
    <title>Slice 1</title>
    <g id="Page-1" stroke="none" stroke-width="1" fill="none" fill-rule="evenodd">
        <g id="hero-overlay-right-2" fill-rule="nonzero">
            <g id="path-3-link" fill="#000000">
                <path d="M25.528893,0 C57.429998,132.757785 197,377.560937 197,377.560937 C197,377.560937 119.791403,512.980591 67.099272,637.00114 L41.570379,637.00114 C94.26251,512.979994 171.471107,377.559603 171.471107,377.559603 C171.471107,377.559603 31.899772,132.757785 0,0 L0,0 L25.528893,0 Z" id="path-3"></path>
            </g>
            <g id="path-3-link" fill="#28CDD2">
                <path d="M25.528893,0 C57.429998,132.757785 197,377.560937 197,377.560937 C197,377.560937 60,627.820312 23.5195312,752 C24.2686631,1184 24.2686631,1400 23.5195312,1400 C22.54253,1400 14.7026863,1400 0,1400 L0,752 C30.671875,622.839844 171.471107,377.559603 171.471107,377.559603 C171.471107,377.559603 31.899772,132.757785 0,0 L25.528893,0 Z" id="path-3"></path>
            </g>
        </g>
    </g>
</svg>